<svg xmlns="http://www.w3.org/2000/svg" version="1.1" xmlns:xlink="http://www.w3.org/1999/xlink" width="512" height="512" x="0" y="0" viewBox="0 0 24 24" style="enable-background:new 0 0 512 512" xml:space="preserve" class=""><g><path fill="#5e94ff" d="M6.5 1.25A5.25 5.25 0 0 0 1.25 6.5v11c0 2.9 2.35 5.25 5.25 5.25h11c2.9 0 5.25-2.35 5.25-5.25v-11c0-2.9-2.35-5.25-5.25-5.25z" opacity="1" data-original="#5e94ff" class=""></path><path fill="#5485e5" fill-rule="evenodd" d="M12 1.25v21.5H6.5a5.25 5.25 0 0 1-5.25-5.25v-11c0-2.9 2.35-5.25 5.25-5.25z" clip-rule="evenodd" opacity="1" data-original="#5485e5"></path><path fill="#eceff1" d="M9.93 10.386A.75.75 0 0 0 8.75 11v7a.75.75 0 0 0 1.18.614l5-3.5a.75.75 0 0 0 0-1.228z" opacity="1" data-original="#eceff1"></path><g fill-rule="evenodd" clip-rule="evenodd"><path fill="#eceff1" d="M1.25 7.25h21.5v1.5H1.25z" opacity="1" data-original="#eceff1"></path><path fill="#d4d6d8" d="m8.54 1.25.172.513 2 6a.75.75 0 0 1-1.423.474l-2-6-.33-.987z" opacity="1" data-original="#d4d6d8"></path><path fill="#eceff1" d="m14.54 1.25.172.513 2 6a.75.75 0 0 1-1.424.474l-2-6-.329-.987z" opacity="1" data-original="#eceff1"></path><path fill="#d4d6d8" d="M1.25 7.25v1.5H12v-1.5H2zM12 11.835v5.33l-2.07 1.45A.75.75 0 0 1 8.75 18v-7a.75.75 0 0 1 1.18-.614z" opacity="1" data-original="#d4d6d8"></path></g></g></svg>
