<svg xmlns="http://www.w3.org/2000/svg" version="1.1" xmlns:xlink="http://www.w3.org/1999/xlink" width="512" height="512" x="0" y="0" viewBox="0 0 512 512" style="enable-background:new 0 0 512 512" xml:space="preserve" class=""><g><rect width="427.97" height="427.97" x="42.01" y="42.95" rx="71.15" fill="#000000" opacity="1" data-original="#000000" class=""></rect><path fill="#00f6ef" d="M389.39 221.92v-57.07c-74.6-3.15-77-70.94-77-77.31v-.48h-57.66v222.27a45.66 45.66 0 1 1-32.36-43.71v-58.86a104.57 104.57 0 0 0-13.32-.85 103.42 103.42 0 1 0 103.42 103.42c0-1.45 0-2.89-.1-4.32V195.56c26.55 24.29 77.02 26.36 77.02 26.36z" opacity="1" data-original="#00f6ef"></path><path fill="#ffffff" d="M406.37 236v-57.1c-74.61-3.15-77-70.94-77-77.31v-.48h-57.66v222.27a45.66 45.66 0 1 1-32.36-43.7v-58.87A104.57 104.57 0 0 0 226 220a103.42 103.42 0 1 0 103.45 103.38c0-1.45 0-2.89-.1-4.32V209.61C355.9 233.9 406.37 236 406.37 236z" opacity="1" data-original="#ffffff"></path><g fill="#ff004f"><path d="M313.82 101.11c2.78 15.14 10.9 38.81 34.57 52.66-18.09-21.07-19-48.26-19-52.18v-.48zM406.37 236v-57.1a106.46 106.46 0 0 1-17-2v44.95s-50.47-2.07-77-26.36v109.42c.06 1.43.1 2.87.1 4.32a103.43 103.43 0 0 1-160.72 86.1 103.41 103.41 0 0 0 177.7-71.95c0-1.45 0-2.89-.1-4.32V209.61C355.9 233.9 406.37 236 406.37 236z" fill="#ff004f" opacity="1" data-original="#ff004f"></path><path d="M222.37 265.53a45.69 45.69 0 0 0-33.19 84.85 45.69 45.69 0 0 1 50.17-70.7v-58.87A104.57 104.57 0 0 0 226 220c-1.23 0-2.44 0-3.66.07z" fill="#ff004f" opacity="1" data-original="#ff004f"></path></g></g></svg>
